<svg xmlns="http://www.w3.org/2000/svg" viewBox="0 0 317.13 64.1"><defs><style>.cls-1{fill:#fff;}</style></defs><g id="Layer_2" data-name="Layer 2"><g id="Layer_1-2" data-name="Layer 1"><polygon class="cls-1" points="207.32 6.24 206.58 30.76 205.54 31.82 202.94 32.01 201.82 30.93 201.63 1.45 203.06 0 209.71 0.19 210.7 0.66 216.97 7.92 216.49 2.33 217.34 1.62 222.52 1.36 223.17 2.14 224.12 28.94 223.68 30.26 222.17 29.53 207.32 6.24 207.32 6.24"/><polygon class="cls-1" points="123.65 33.9 133.67 35.97 138.49 40.3 140.48 45.37 139.87 51.99 134.03 59.14 131.5 60.44 122.68 60.58 121.76 59.73 121.96 35.44 123.65 33.9 123.65 33.9"/><path class="cls-1" d="M69.13,29.84l-1.17,1-1.8.11L64.93,29.8l.46-26.25.81-.74,5.5.63.81.55L88.2,5.85l.54.65v4.73L88,12l-10.55,1.3-.12.66L87.52,29l-.82.75-.64-.23-4.94-6.17-.48-1.12-1.31-.57-6.11-5.89-1-.52-.58,14.78-.55.77-1.73-.06-.25-.91Zm2.69-22,.85,2.23,1,1L77,10.84l.52-1.27L77.19,9l-1.28-.85L71.8,7.89Z"/><polygon class="cls-1" points="242.71 13.3 243.31 31.22 242.59 32.03 236.15 32.56 235.33 31.76 235.93 7.9 235.25 7.21 229.43 8.11 228.31 7.17 228.29 2.63 228.97 1.72 249.24 0.96 249.88 1.55 250.64 8.16 249.61 9.19 243.81 9.17 242.7 10.3 242.71 13.3 242.71 13.3"/><path class="cls-1" d="M181,42.17l-1.08,3-9.56,2.44,9.24,11.61-.69,2.27L176,60.29l-3.45-4.66-1.17-.56L166.22,50l-.93,2.31L165,62.38l-6-.08.46-25.14h6.08l.72.57,13.91,1.61.86,2.85Zm-14.73-.87-.59.67,1,2.05,2.75.65,4.79-1.53-3.57-2.57-4.4.73Z"/><path class="cls-1" d="M121.08,15.23l6.23,5.28.78,4.06-4.83,4.71-6.29.53-3.59-.74.76-4.16,2.12-2.56L116.2,4.41l-2.87-.75L113,.05l5.65.4,6,2.1,3.93,5.71-2.92,4.26Zm3.43-5.63L123.3,6.41l-2.6-.07L120,11.45Z"/><polygon class="cls-1" points="236.79 42.46 237.49 42.46 238.3 43.13 237.75 62.79 238.33 63.6 244.23 64.1 244.88 63.28 244.39 41.64 250.12 42.46 251.11 41.71 251.16 36.27 250.57 35.52 232.5 34.82 231.94 35.45 231.34 40.48 234.29 42.46 236.79 42.46 236.79 42.46"/><polygon class="cls-1" points="158.96 5.77 158.8 11.89 169.87 13.24 170.38 12.73 170.84 6.1 171.11 5.62 173.45 6.79 173.92 28.41 172.68 30.26 170.22 28.37 169.86 19.4 161.17 19.32 160.15 29.19 155.76 30.25 154.99 21.64 154.9 21.43 154.38 20.96 154.8 1.18 158.97 0.89 158.96 5.77 158.96 5.77"/><path class="cls-1" d="M109.22,18.79l-.35,5.87-4.28,4.46-9.34-1.95-3.18-6.09-.35-6.91L96.84,7l8.34,1.83,3.64,4.49.4,5.45ZM104.66,20l-2.37-5.53L98,13.1l-1.49.35L94.74,17.1l-.08,1.6L97.8,22l4.29,1.09,2.36-1.53.21-1.57Z"/><path class="cls-1" d="M110.16,60.34,106.05,60l-3.12-4.75,1.36-10.4,4.27-3.53,4.84-.39,5,5.69-1.29,9.28L114,59.91l-3.83.43Zm-.85-5.06,3.88-2.64,1-4.78L114,46.19l-2.56-2-1.12-.09-2.33,3.49-.76,4.77L108.25,55l1.1.24Z"/><polygon class="cls-1" points="70 50.49 72.27 46.69 73.53 46.59 78.74 52.7 78.96 37.52 79.23 36.98 79.67 37.29 80.83 58.64 79.6 59.91 77.78 60.43 73.66 59.92 72.7 59.14 72.01 57.23 71.14 57.04 69.18 58.91 65.49 59.05 65.2 58.08 64.61 37.31 65.71 36.03 68.4 35.78 69.59 36.9 69.59 50.41 70 50.49 70 50.49"/><polygon class="cls-1" points="212.64 37.33 226.01 37.16 227.33 38.4 227.21 43.23 225.9 44.44 212.59 44.98 211.77 45.85 213.6 47.58 223.46 47.43 224.28 48.6 223.42 48.98 212.74 49.39 211.75 50.41 211.88 62.55 210.82 63.54 208.43 63.22 207.7 62.33 208.97 38.16 209.74 37.33 212.64 37.33 212.64 37.33"/><path class="cls-1" d="M100.35,51.6l.09,2.77-5,6.74-4.79-.83-6.09-5V44.42l4.62-3.93L97,42.27l2.92,4.85.43,4.52Zm-11.84.15,2.13,5.12,3.91,1.29,1.5-.36,1.58-3.31-.07-1.7-3.12-3L91,49l-2.23,1.19-.2,1.61Z"/><polygon class="cls-1" points="188.52 54.01 186.81 58.95 183.52 59.74 184.14 54.81 192.21 37.66 193.22 36.74 194.71 37.73 204.09 62.18 203.74 63.3 202.22 62.98 196.55 54.46 195.83 54.11 189.76 54.54 188.52 54.01 188.52 54.01"/><polygon class="cls-1" points="142.74 47.84 147.23 39.82 153.12 36.77 154.49 36.94 154.31 39.1 151.46 41.26 146.2 47.83 147.38 55.21 153.67 59.8 153.62 62.19 152.94 62.33 147.23 60.24 146.37 59.48 142.74 47.84 142.74 47.84"/><polygon class="cls-1" points="308.94 46.07 292.47 45.62 301.68 54.48 301.08 54.83 286.1 52.9 283.55 55.48 285.98 57.88 267.76 53.1 265.67 53.77 260.68 60.6 256.72 60.06 256.58 58.7 257.61 56.95 264.38 52.98 263.05 36.71 267.24 40.05 268.15 40.12 268.32 39.28 264.94 29.74 266.17 27.34 266.02 22.83 274.26 31.41 275.47 31.56 276.06 30.04 273.09 16.59 273.32 16.59 274.43 17.44 275.87 11.46 282.31 21.31 284.24 22.16 285.31 20.69 285.1 10.99 287.48 9.49 288.42 6.27 293.16 15.23 297.63 15.12 303.06 8.19 304.79 9.45 311.28 6.14 308.98 12.25 311.36 15.03 312.07 15.03 307.49 20.09 308.97 23.66 316.42 24.15 313.35 27.1 313.32 29.51 302.78 32.25 301.26 33.97 302.42 36.06 317.13 41.46 309.33 44.03 308.94 46.07 308.94 46.07 308.94 46.07 308.94 46.07"/><polygon class="cls-1" points="40.17 10.92 38.56 24.17 39.37 26.35 41.81 25.41 48.37 17.9 48.71 18.46 48.46 21.64 49.05 24.94 46.63 32.31 49.22 34.67 51.61 32.42 47.12 49.31 47.86 51.23 54.87 55.59 54.96 58.21 54.51 59.24 53.15 59.42 50.36 61.97 50.01 55.38 47.11 52.45 44.62 51.69 30.9 54.26 34.09 50.18 34.13 49.31 33.29 49.18 23.87 52.7 21.43 51.6 17.93 52.09 16.93 51.89 25.28 43.71 25.4 42.55 23.87 42.01 10.48 45.17 10.48 44.94 11.3 43.84 10.01 43.38 6.59 43.08 5.3 42.53 15.06 36.07 15.9 34.18 14.42 33.14 4.73 33.38 3.22 31.03 0 30.08 8.98 25.43 8.94 21.03 2.12 15.51 3.44 13.81 1.02 10.23 0.35 7.24 2.47 8.33 4.44 8.75 6.36 9.76 9.23 7.51 9.26 6.81 14.15 11.48 17.77 10.16 18.56 2.96 21.37 6.05 23.78 6.18 26.17 16.37 27.86 17.86 29.97 16.81 35.89 3.06 36.37 3.85 38.14 10.49 40.17 10.92 40.17 10.92"/><polygon class="cls-1" points="197.53 6.4 197.58 3.21 196.76 2.35 192.41 2.32 191.76 3.06 192.86 21.06 191.47 22.26 190.28 25.26 190.25 26.2 189.33 27.04 185.35 28.57 185.14 27.91 183.77 26.15 183.46 25.97 180.98 23.19 180.11 2.81 178.02 2.72 177.04 3.72 177.04 25.92 177.5 27.36 179.55 29.16 181.01 29.51 181.1 30.31 189.57 32.92 189.57 32.91 191.61 32.81 194.87 31.3 197.27 24.84 196.38 23.37 197.25 22.74 197.53 6.4 197.53 6.4"/></g></g></svg>